<?xml version="1.0" encoding="UTF-8"?>
<svg width="40" height="40" viewBox="0 0 40 40" fill="none" xmlns="http://www.w3.org/2000/svg">
    <rect width="40" height="40" rx="8" fill="#4e73df"/>
    <path d="M20 10C14.48 10 10 14.48 10 20C10 25.52 14.48 30 20 30C25.52 30 30 25.52 30 20C30 14.48 25.52 10 20 10ZM20 28C15.59 28 12 24.41 12 20C12 15.59 15.59 12 20 12C24.41 12 28 15.59 28 20C28 24.41 24.41 28 20 28Z" fill="white"/>
    <path d="M20 13C18.34 13 17 14.34 17 16C17 17.66 18.34 19 20 19C21.66 19 23 17.66 23 16C23 14.34 21.66 13 20 13ZM20 17C19.45 17 19 16.55 19 16C19 15.45 19.45 15 20 15C20.55 15 21 15.45 21 16C21 16.55 20.55 17 20 17Z" fill="white"/>
    <path d="M20 21C18.33 21 14 22.34 14 24V25H26V24C26 22.34 21.67 21 20 21ZM16.5 23C17.38 22.22 18.94 21.5 20 21.5C21.06 21.5 22.62 22.22 23.5 23H16.5Z" fill="white"/>
</svg>
